<mxfile host="app.diagrams.net" modified="2022-11-04T06:11:58.930Z" agent="5.0 (Windows NT 10.0; Win64; x64) AppleWebKit/537.36 (KHTML, like Gecko) Chrome/107.0.0.0 Safari/537.36" etag="O5sKCMeei-UNCjuqeLqN" version="20.5.1" type="github">
  <diagram id="o7RmwV6b9uz95f7LPwNC" name="第 1 页">
    <mxGraphModel dx="996" dy="584" grid="1" gridSize="10" guides="1" tooltips="1" connect="1" arrows="1" fold="1" page="1" pageScale="1" pageWidth="827" pageHeight="1169" math="0" shadow="0">
      <root>
        <mxCell id="0" />
        <mxCell id="1" parent="0" />
        <mxCell id="93VAfoVYq_0gGzdohjAb-5" value="" style="edgeStyle=orthogonalEdgeStyle;rounded=0;orthogonalLoop=1;jettySize=auto;html=1;fontSize=18;align=left;fontFamily=Helvetica;labelPosition=center;verticalLabelPosition=middle;verticalAlign=middle;" parent="1" source="93VAfoVYq_0gGzdohjAb-1" target="93VAfoVYq_0gGzdohjAb-4" edge="1">
          <mxGeometry relative="1" as="geometry" />
        </mxCell>
        <mxCell id="93VAfoVYq_0gGzdohjAb-1" value="&lt;span style=&quot;font-size: 18px;&quot;&gt;活动开始前，进行线下集体讨论，线上调查靖州县甘棠镇基本情况&lt;/span&gt;" style="rounded=0;whiteSpace=wrap;html=1;fontSize=18;align=left;fontFamily=Helvetica;labelPosition=center;verticalLabelPosition=middle;verticalAlign=middle;" parent="1" vertex="1">
          <mxGeometry x="200" y="10" width="428" height="80" as="geometry" />
        </mxCell>
        <mxCell id="93VAfoVYq_0gGzdohjAb-7" value="" style="edgeStyle=orthogonalEdgeStyle;rounded=0;orthogonalLoop=1;jettySize=auto;html=1;fontSize=18;fontFamily=Helvetica;align=left;labelPosition=center;verticalLabelPosition=middle;verticalAlign=middle;" parent="1" source="93VAfoVYq_0gGzdohjAb-4" target="93VAfoVYq_0gGzdohjAb-6" edge="1">
          <mxGeometry relative="1" as="geometry" />
        </mxCell>
        <mxCell id="93VAfoVYq_0gGzdohjAb-4" value="&lt;p style=&quot;font-size: 18px;&quot; class=&quot;MsoNormal&quot;&gt;&lt;span style=&quot;font-size: 18px;&quot;&gt;入户走访甘棠镇建国村、乐群村、塘头村、甘棠村等村的农户&lt;/span&gt;&lt;br style=&quot;font-size: 18px;&quot;&gt;&lt;/p&gt;" style="rounded=0;whiteSpace=wrap;html=1;fontSize=18;align=left;fontFamily=Helvetica;labelPosition=center;verticalLabelPosition=middle;verticalAlign=middle;" parent="1" vertex="1">
          <mxGeometry x="200" y="170" width="428" height="80" as="geometry" />
        </mxCell>
        <mxCell id="93VAfoVYq_0gGzdohjAb-9" value="" style="edgeStyle=orthogonalEdgeStyle;rounded=0;orthogonalLoop=1;jettySize=auto;html=1;fontFamily=Helvetica;fontSize=18;align=left;labelPosition=center;verticalLabelPosition=middle;verticalAlign=middle;" parent="1" source="93VAfoVYq_0gGzdohjAb-6" target="93VAfoVYq_0gGzdohjAb-8" edge="1">
          <mxGeometry relative="1" as="geometry" />
        </mxCell>
        <mxCell id="93VAfoVYq_0gGzdohjAb-6" value="&lt;span style=&quot;font-size: 18px;&quot;&gt;与镇村干部进行座谈&lt;/span&gt;&lt;span style=&quot;font-size: 18px;&quot;&gt;&lt;br style=&quot;font-size: 18px;&quot;&gt;&lt;/span&gt;" style="rounded=0;whiteSpace=wrap;html=1;fontSize=18;align=center;fontFamily=Helvetica;labelPosition=center;verticalLabelPosition=middle;verticalAlign=middle;" parent="1" vertex="1">
          <mxGeometry x="200" y="330" width="428" height="80" as="geometry" />
        </mxCell>
        <mxCell id="93VAfoVYq_0gGzdohjAb-12" value="" style="edgeStyle=orthogonalEdgeStyle;rounded=0;orthogonalLoop=1;jettySize=auto;html=1;fontFamily=Helvetica;fontSize=18;align=left;labelPosition=center;verticalLabelPosition=middle;verticalAlign=middle;" parent="1" source="93VAfoVYq_0gGzdohjAb-8" edge="1">
          <mxGeometry relative="1" as="geometry">
            <mxPoint x="413.9999999999998" y="650" as="targetPoint" />
          </mxGeometry>
        </mxCell>
        <mxCell id="93VAfoVYq_0gGzdohjAb-8" value="&lt;span style=&quot;font-size: 18px;&quot;&gt;参观甘棠镇甘棠家园易迁集中安置点和帮扶车间、新农贸市场、水稻制种示范基地、烟稻轮作示范基地和鑫源杨梅合作社标准化示范基地&lt;/span&gt;&lt;span style=&quot;font-size: 18px;&quot;&gt;&lt;br style=&quot;font-size: 18px;&quot;&gt;&lt;/span&gt;" style="rounded=0;whiteSpace=wrap;html=1;fontSize=18;align=left;fontFamily=Helvetica;labelPosition=center;verticalLabelPosition=middle;verticalAlign=middle;" parent="1" vertex="1">
          <mxGeometry x="200" y="490" width="428" height="80" as="geometry" />
        </mxCell>
        <mxCell id="93VAfoVYq_0gGzdohjAb-14" value="" style="edgeStyle=orthogonalEdgeStyle;rounded=0;orthogonalLoop=1;jettySize=auto;html=1;fontFamily=Helvetica;fontSize=18;align=left;labelPosition=center;verticalLabelPosition=middle;verticalAlign=middle;" parent="1" target="93VAfoVYq_0gGzdohjAb-13" edge="1">
          <mxGeometry relative="1" as="geometry">
            <mxPoint x="413.9999999999998" y="730" as="sourcePoint" />
          </mxGeometry>
        </mxCell>
        <mxCell id="93VAfoVYq_0gGzdohjAb-17" value="" style="edgeStyle=orthogonalEdgeStyle;rounded=0;orthogonalLoop=1;jettySize=auto;html=1;fontFamily=Helvetica;fontSize=18;labelPosition=center;verticalLabelPosition=middle;align=left;verticalAlign=middle;" parent="1" source="93VAfoVYq_0gGzdohjAb-13" edge="1">
          <mxGeometry relative="1" as="geometry">
            <mxPoint x="414" y="970" as="targetPoint" />
          </mxGeometry>
        </mxCell>
        <mxCell id="93VAfoVYq_0gGzdohjAb-13" value="&lt;div style=&quot;font-size: 18px;&quot;&gt;&lt;span style=&quot;background-color: initial; font-size: 18px;&quot;&gt;结合专业知识为农村道路规划提供相关建议&lt;/span&gt;&lt;/div&gt;" style="rounded=0;whiteSpace=wrap;html=1;fontSize=18;align=center;fontFamily=Helvetica;labelPosition=center;verticalLabelPosition=middle;verticalAlign=middle;" parent="1" vertex="1">
          <mxGeometry x="200" y="810" width="428" height="80" as="geometry" />
        </mxCell>
        <mxCell id="93VAfoVYq_0gGzdohjAb-15" value="&lt;span style=&quot;font-size: 18px;&quot;&gt;深入调研农村产业发展、疫情防控、村级集体经济和农村人居环境整治&lt;/span&gt;&lt;span style=&quot;font-size: 18px;&quot;&gt;&lt;br style=&quot;font-size: 18px;&quot;&gt;&lt;/span&gt;" style="rounded=0;whiteSpace=wrap;html=1;fontSize=18;align=left;fontFamily=Helvetica;labelPosition=center;verticalLabelPosition=middle;verticalAlign=middle;" parent="1" vertex="1">
          <mxGeometry x="200" y="650" width="428" height="80" as="geometry" />
        </mxCell>
        <mxCell id="c0gexb67Pwen1uFpu2Fr-5" value="" style="edgeStyle=orthogonalEdgeStyle;rounded=0;orthogonalLoop=1;jettySize=auto;html=1;fontFamily=Helvetica;fontSize=18;" edge="1" parent="1">
          <mxGeometry relative="1" as="geometry">
            <mxPoint x="414" y="1050" as="sourcePoint" />
            <mxPoint x="414" y="1130" as="targetPoint" />
          </mxGeometry>
        </mxCell>
        <mxCell id="c0gexb67Pwen1uFpu2Fr-6" value="&lt;span style=&quot;font-size: 18px;&quot;&gt;通过多种媒体渠道对靖州苗族侗族自治县甘棠镇的特色及其在脱贫道路上的经验进行宣传&lt;/span&gt;&lt;span style=&quot;font-size: 18px;&quot;&gt;&lt;br style=&quot;font-size: 18px;&quot;&gt;&lt;/span&gt;" style="rounded=0;whiteSpace=wrap;html=1;fontSize=18;align=left;fontFamily=Helvetica;labelPosition=center;verticalLabelPosition=middle;verticalAlign=middle;" vertex="1" parent="1">
          <mxGeometry x="200" y="1130" width="428" height="80" as="geometry" />
        </mxCell>
        <mxCell id="c0gexb67Pwen1uFpu2Fr-7" value="&lt;span style=&quot;font-size: 18px;&quot;&gt;与甘棠镇党委书记余秋松同志座谈，提出团队&lt;/span&gt;&lt;span style=&quot;font-size: 18px;&quot;&gt;关于甘棠镇乡村振兴问题的一些的意见和看法&lt;/span&gt;&lt;span style=&quot;font-size: 18px;&quot;&gt;&lt;br style=&quot;font-size: 18px;&quot;&gt;&lt;/span&gt;" style="rounded=0;whiteSpace=wrap;html=1;fontSize=18;align=left;fontFamily=Helvetica;labelPosition=center;verticalLabelPosition=middle;verticalAlign=middle;" vertex="1" parent="1">
          <mxGeometry x="200" y="970" width="428" height="80" as="geometry" />
        </mxCell>
      </root>
    </mxGraphModel>
  </diagram>
</mxfile>
